ffmpeg started on 2025-05-05 at 10:22:30
Report written to "D:\Convert\FFMetrics\reports\psnr_report-6.txt"
Log level: 32
Command line:
ffmpeg -hide_banner -nostdin -i "G:\\\xc0\xed\xe8\xec\xe5\\\xce\xed\xe3\xee\xe8\xed\xe3\xe8\\!_35_\xcb\xe5\xf2\xee_2024\\JamClub-1\\\xcb\xfe\xe4\xe8 \xef\xee\xe4\xe7\xe5\xec\xe5\xeb\xfc\xff\\JamClub_Dungeon_no_Naka_no_Hito_03_1080p_HEVC.mkv" -i "G:\\\xc0\xed\xe8\xec\xe5\\\xce\xed\xe3\xee\xe8\xed\xe3\xe8\\!_35_\xcb\xe5\xf2\xee_2024\\JamClub-1\\\xcb\xfe\xe4\xe8 \xef\xee\xe4\xe7\xe5\xec\xe5\xeb\xfc\xff\\JamClub_Dungeon_no_Naka_no_Hito_03_1080p.mp4" -lavfi "[0:v]settb=AVTB,setpts=PTS-STARTPTS,format=pix_fmts=yuv420p10,fps=24000/1001,scale=1920:1080:flags=bicubic[main];[1:v]settb=AVTB,setpts=PTS-STARTPTS,format=pix_fmts=yuv420p,fps=24000/1001,scale=1920:1080:flags=bicubic[ref];[main][ref]psnr=eof_action=endall:stats_file='D\\:/Convert/FFMetrics/logs/psnr_logfile-6.txt'" -f null -
Input #0, matroska,webm, from 'G:\Аниме\Онгоинги\!_35_Лето_2024\JamClub-1\Люди подземелья\JamClub_Dungeon_no_Naka_no_Hito_03_1080p_HEVC.mkv':
  Metadata:
    COMPATIBLE_BRANDS: isomiso2avc1mp41
    MAJOR_BRAND     : isom
    MINOR_VERSION   : 512
    ENCODER         : Lavf61.7.100
  Duration: 00:24:51.70, start: -0.021000, bitrate: 1218 kb/s
  Stream #0:0: Video: hevc (Main 10), yuv420p10le(tv, bt709, progressive), 1920x1080 [SAR 1:1 DAR 16:9], 23.98 fps, 23.98 tbr, 1k tbn (default)
      Metadata:
        HANDLER_NAME    : VideoHandler
        VENDOR_ID       : [0][0][0][0]
        ENCODER         : Lavc61.19.100 libx265
        BPS             : 1020886
        DURATION        : 00:24:51.656708333
        NUMBER_OF_FRAMES: 35764
        NUMBER_OF_BYTES : 190351518
        _STATISTICS_WRITING_APP: mkvpropedit v66.0.0 ('Josie') 64-bit
        _STATISTICS_WRITING_DATE_UTC: 2025-05-04 13:09:03
        _STATISTICS_TAGS: BPS DURATION NUMBER_OF_FRAMES NUMBER_OF_BYTES
  Stream #0:1(eng): Audio: aac (LC), 48000 Hz, stereo, fltp (default)
      Metadata:
        HANDLER_NAME    : SoundHandler
        VENDOR_ID       : [0][0][0][0]
        ENCODER         : Lavc61.19.100 aac
        BPS             : 193796
        DURATION        : 00:24:51.672000000
        NUMBER_OF_FRAMES: 69923
        NUMBER_OF_BYTES : 36135090
        _STATISTICS_WRITING_APP: mkvpropedit v66.0.0 ('Josie') 64-bit
        _STATISTICS_WRITING_DATE_UTC: 2025-05-04 13:09:03
        _STATISTICS_TAGS: BPS DURATION NUMBER_OF_FRAMES NUMBER_OF_BYTES
Input #1, mov,mp4,m4a,3gp,3g2,mj2, from 'G:\Аниме\Онгоинги\!_35_Лето_2024\JamClub-1\Люди подземелья\JamClub_Dungeon_no_Naka_no_Hito_03_1080p.mp4':
  Metadata:
    major_brand     : isom
    minor_version   : 512
    compatible_brands: isomiso2avc1mp41
    encoder         : Lavf60.16.100
  Duration: 00:24:51.68, start: 0.000000, bitrate: 4137 kb/s
  Stream #1:0[0x1](und): Video: h264 (High) (avc1 / 0x31637661), yuv420p(tv, bt709, progressive), 1920x1080 [SAR 1:1 DAR 16:9], 3939 kb/s, 23.98 fps, 23.98 tbr, 90k tbn (default)
      Metadata:
        handler_name    : VideoHandler
        vendor_id       : [0][0][0][0]
  Stream #1:1[0x2](eng): Audio: aac (LC) (mp4a / 0x6134706D), 48000 Hz, stereo, fltp, 191 kb/s (default)
      Metadata:
        handler_name    : SoundHandler
        vendor_id       : [0][0][0][0]
Stream mapping:
  Stream #0:0 (hevc) -> settb:default
  Stream #1:0 (h264) -> settb:default
  psnr:default -> Stream #0:0 (wrapped_avframe)
  Stream #0:1 -> #0:1 (aac (native) -> pcm_s16le (native))
Output #0, null, to 'pipe:':
  Metadata:
    COMPATIBLE_BRANDS: isomiso2avc1mp41
    MAJOR_BRAND     : isom
    MINOR_VERSION   : 512
    encoder         : Lavf61.7.100
  Stream #0:0: Video: wrapped_avframe, yuv420p10le(tv, bt709, progressive), 1920x1080 [SAR 1:1 DAR 16:9], q=2-31, 200 kb/s, 23.98 fps, 23.98 tbn
      Metadata:
        encoder         : Lavc61.19.100 wrapped_avframe
  Stream #0:1(eng): Audio: pcm_s16le, 48000 Hz, stereo, s16, 1536 kb/s (default)
      Metadata:
        HANDLER_NAME    : SoundHandler
        VENDOR_ID       : [0][0][0][0]
        _STATISTICS_TAGS: BPS DURATION NUMBER_OF_FRAMES NUMBER_OF_BYTES
        BPS             : 193796
        DURATION        : 00:24:51.672000000
        NUMBER_OF_FRAMES: 69923
        NUMBER_OF_BYTES : 36135090
        _STATISTICS_WRITING_APP: mkvpropedit v66.0.0 ('Josie') 64-bit
        _STATISTICS_WRITING_DATE_UTC: 2025-05-04 13:09:03
        encoder         : Lavc61.19.100 pcm_s16le
frame=  118 fps=0.0 q=-0.0 size=N/A time=00:00:04.92 bitrate=N/A speed=9.61x    frame=  279 fps=273 q=-0.0 size=N/A time=00:00:11.63 bitrate=N/A speed=11.4x    frame=  485 fps=314 q=-0.0 size=N/A time=00:00:20.22 bitrate=N/A speed=13.1x    frame=  737 fps=358 q=-0.0 size=N/A time=00:00:30.73 bitrate=N/A speed=14.9x    frame=  986 fps=382 q=-0.0 size=N/A time=00:00:41.12 bitrate=N/A speed=15.9x    frame= 1225 fps=396 q=-0.0 size=N/A time=00:00:51.09 bitrate=N/A speed=16.5x    frame= 1467 fps=408 q=-0.0 size=N/A time=00:01:01.18 bitrate=N/A speed=  17x    frame= 1732 fps=420 q=-0.0 size=N/A time=00:01:12.23 bitrate=N/A speed=17.5x    frame= 1981 fps=428 q=-0.0 size=N/A time=00:01:22.62 bitrate=N/A speed=17.8x    frame= 2257 fps=438 q=-0.0 size=N/A time=00:01:34.13 bitrate=N/A speed=18.3x    frame= 2523 fps=445 q=-0.0 size=N/A time=00:01:45.23 bitrate=N/A speed=18.6x    frame= 2780 fps=449 q=-0.0 size=N/A time=00:01:55.94 bitrate=N/A speed=18.7x    frame= 3004 fps=449 q=-0.0 size=N/A time=00:02:05.29 bitrate=N/A speed=18.7x    frame= 3219 fps=446 q=-0.0 size=N/A time=00:02:14.25 bitrate=N/A speed=18.6x    frame= 3407 fps=440 q=-0.0 size=N/A time=00:02:22.10 bitrate=N/A speed=18.4x    frame= 3628 fps=440 q=-0.0 size=N/A time=00:02:31.31 bitrate=N/A speed=18.3x    frame= 3845 fps=439 q=-0.0 size=N/A time=00:02:40.36 bitrate=N/A speed=18.3x    frame= 4066 fps=438 q=-0.0 size=N/A time=00:02:49.58 bitrate=N/A speed=18.3x    frame= 4239 fps=433 q=-0.0 size=N/A time=00:02:56.80 bitrate=N/A speed=18.1x    frame= 4413 fps=428 q=-0.0 size=N/A time=00:03:04.05 bitrate=N/A speed=17.9x    frame= 4603 fps=425 q=-0.0 size=N/A time=00:03:11.98 bitrate=N/A speed=17.7x    frame= 4835 fps=426 q=-0.0 size=N/A time=00:03:21.65 bitrate=N/A speed=17.8x    frame= 5099 fps=430 q=-0.0 size=N/A time=00:03:32.67 bitrate=N/A speed=17.9x    frame= 5365 fps=434 q=-0.0 size=N/A time=00:03:43.76 bitrate=N/A speed=18.1x    frame= 5631 fps=437 q=-0.0 size=N/A time=00:03:54.85 bitrate=N/A speed=18.2x    frame= 5891 fps=440 q=-0.0 size=N/A time=00:04:05.70 bitrate=N/A speed=18.3x    frame= 6175 fps=444 q=-0.0 size=N/A time=00:04:17.54 bitrate=N/A speed=18.5x    frame= 6431 fps=446 q=-0.0 size=N/A time=00:04:28.22 bitrate=N/A speed=18.6x    frame= 6709 fps=449 q=-0.0 size=N/A time=00:04:39.82 bitrate=N/A speed=18.7x    frame= 6961 fps=450 q=-0.0 size=N/A time=00:04:50.33 bitrate=N/A speed=18.8x    frame= 7211 fps=451 q=-0.0 size=N/A time=00:05:00.75 bitrate=N/A speed=18.8x    frame= 7481 fps=454 q=-0.0 size=N/A time=00:05:12.02 bitrate=N/A speed=18.9x    frame= 7738 fps=455 q=-0.0 size=N/A time=00:05:22.73 bitrate=N/A speed=  19x    frame= 7984 fps=455 q=-0.0 size=N/A time=00:05:32.99 bitrate=N/A speed=  19x    frame= 8257 fps=457 q=-0.0 size=N/A time=00:05:44.38 bitrate=N/A speed=19.1x    frame= 8517 fps=459 q=-0.0 size=N/A time=00:05:55.22 bitrate=N/A speed=19.1x    frame= 8775 fps=460 q=-0.0 size=N/A time=00:06:05.99 bitrate=N/A speed=19.2x    frame= 9053 fps=462 q=-0.0 size=N/A time=00:06:17.58 bitrate=N/A speed=19.3x    frame= 9317 fps=463 q=-0.0 size=N/A time=00:06:28.59 bitrate=N/A speed=19.3x    frame= 9576 fps=463 q=-0.0 size=N/A time=00:06:39.39 bitrate=N/A speed=19.3x    frame= 9830 fps=464 q=-0.0 size=N/A time=00:06:49.99 bitrate=N/A speed=19.4x    frame=10080 fps=465 q=-0.0 size=N/A time=00:07:00.42 bitrate=N/A speed=19.4x    frame=10342 fps=466 q=-0.0 size=N/A time=00:07:11.34 bitrate=N/A speed=19.4x    frame=10626 fps=468 q=-0.0 size=N/A time=00:07:23.19 bitrate=N/A speed=19.5x    frame=10886 fps=468 q=-0.0 size=N/A time=00:07:34.03 bitrate=N/A speed=19.5x    frame=11155 fps=469 q=-0.0 size=N/A time=00:07:45.25 bitrate=N/A speed=19.6x    frame=11398 fps=470 q=-0.0 size=N/A time=00:07:55.39 bitrate=N/A speed=19.6x    frame=11676 fps=471 q=-0.0 size=N/A time=00:08:06.98 bitrate=N/A speed=19.6x    frame=11870 fps=469 q=-0.0 size=N/A time=00:08:15.07 bitrate=N/A speed=19.6x    frame=12104 fps=469 q=-0.0 size=N/A time=00:08:24.83 bitrate=N/A speed=19.5x    frame=12330 fps=468 q=-0.0 size=N/A time=00:08:34.26 bitrate=N/A speed=19.5x    frame=12585 fps=469 q=-0.0 size=N/A time=00:08:44.89 bitrate=N/A speed=19.5x    frame=12812 fps=468 q=-0.0 size=N/A time=00:08:54.36 bitrate=N/A speed=19.5x    frame=13086 fps=469 q=-0.0 size=N/A time=00:09:05.79 bitrate=N/A speed=19.6x    frame=13362 fps=471 q=-0.0 size=N/A time=00:09:17.30 bitrate=N/A speed=19.6x    frame=13648 fps=472 q=-0.0 size=N/A time=00:09:29.23 bitrate=N/A speed=19.7x    frame=13908 fps=473 q=-0.0 size=N/A time=00:09:40.07 bitrate=N/A speed=19.7x    frame=14186 fps=474 q=-0.0 size=N/A time=00:09:51.67 bitrate=N/A speed=19.8x    frame=14406 fps=473 q=-0.0 size=N/A time=00:10:00.85 bitrate=N/A speed=19.7x    frame=14641 fps=473 q=-0.0 size=N/A time=00:10:10.65 bitrate=N/A speed=19.7x    frame=14876 fps=472 q=-0.0 size=N/A time=00:10:20.45 bitrate=N/A speed=19.7x    frame=15108 fps=472 q=-0.0 size=N/A time=00:10:30.12 bitrate=N/A speed=19.7x    frame=15354 fps=472 q=-0.0 size=N/A time=00:10:40.38 bitrate=N/A speed=19.7x    frame=15604 fps=472 q=-0.0 size=N/A time=00:10:50.81 bitrate=N/A speed=19.7x    frame=15860 fps=472 q=-0.0 size=N/A time=00:11:01.49 bitrate=N/A speed=19.7x    frame=16113 fps=473 q=-0.0 size=N/A time=00:11:12.04 bitrate=N/A speed=19.7x    frame=16394 fps=474 q=-0.0 size=N/A time=00:11:23.76 bitrate=N/A speed=19.8x    frame=16648 fps=474 q=-0.0 size=N/A time=00:11:34.36 bitrate=N/A speed=19.8x    frame=16920 fps=475 q=-0.0 size=N/A time=00:11:45.70 bitrate=N/A speed=19.8x    frame=17166 fps=475 q=-0.0 size=N/A time=00:11:55.96 bitrate=N/A speed=19.8x    frame=17412 fps=475 q=-0.0 size=N/A time=00:12:06.22 bitrate=N/A speed=19.8x    frame=17642 fps=475 q=-0.0 size=N/A time=00:12:15.81 bitrate=N/A speed=19.8x    frame=17899 fps=475 q=-0.0 size=N/A time=00:12:26.53 bitrate=N/A speed=19.8x    frame=18117 fps=474 q=-0.0 size=N/A time=00:12:35.62 bitrate=N/A speed=19.8x    frame=18377 fps=474 q=-0.0 size=N/A time=00:12:46.47 bitrate=N/A speed=19.8x    frame=18641 fps=475 q=-0.0 size=N/A time=00:12:57.48 bitrate=N/A speed=19.8x    frame=18902 fps=475 q=-0.0 size=N/A time=00:13:08.37 bitrate=N/A speed=19.8x    frame=19152 fps=476 q=-0.0 size=N/A time=00:13:18.79 bitrate=N/A speed=19.8x    frame=19360 fps=475 q=-0.0 size=N/A time=00:13:27.47 bitrate=N/A speed=19.8x    frame=19620 fps=475 q=-0.0 size=N/A time=00:13:38.31 bitrate=N/A speed=19.8x    frame=19879 fps=475 q=-0.0 size=N/A time=00:13:49.16 bitrate=N/A speed=19.8x    frame=20113 fps=475 q=-0.0 size=N/A time=00:13:58.87 bitrate=N/A speed=19.8x    frame=20339 fps=475 q=-0.0 size=N/A time=00:14:08.30 bitrate=N/A speed=19.8x    frame=20546 fps=474 q=-0.0 size=N/A time=00:14:16.93 bitrate=N/A speed=19.8x    frame=20811 fps=474 q=-0.0 size=N/A time=00:14:27.99 bitrate=N/A speed=19.8x    frame=21039 fps=474 q=-0.0 size=N/A time=00:14:37.50 bitrate=N/A speed=19.8x    frame=21245 fps=473 q=-0.0 size=N/A time=00:14:46.09 bitrate=N/A speed=19.7x    frame=21465 fps=472 q=-0.0 size=N/A time=00:14:55.26 bitrate=N/A speed=19.7x    frame=21680 fps=471 q=-0.0 size=N/A time=00:15:04.23 bitrate=N/A speed=19.7x    frame=21876 fps=471 q=-0.0 size=N/A time=00:15:12.41 bitrate=N/A speed=19.6x    frame=22110 fps=470 q=-0.0 size=N/A time=00:15:22.17 bitrate=N/A speed=19.6x    frame=22347 fps=470 q=-0.0 size=N/A time=00:15:32.05 bitrate=N/A speed=19.6x    frame=22598 fps=470 q=-0.0 size=N/A time=00:15:42.52 bitrate=N/A speed=19.6x    frame=22857 fps=471 q=-0.0 size=N/A time=00:15:53.32 bitrate=N/A speed=19.6x    frame=23108 fps=471 q=-0.0 size=N/A time=00:16:03.79 bitrate=N/A speed=19.6x    frame=23326 fps=470 q=-0.0 size=N/A time=00:16:12.88 bitrate=N/A speed=19.6x    frame=23519 fps=469 q=-0.0 size=N/A time=00:16:20.93 bitrate=N/A speed=19.6x    frame=23759 fps=469 q=-0.0 size=N/A time=00:16:30.94 bitrate=N/A speed=19.6x    frame=24002 fps=469 q=-0.0 size=N/A time=00:16:41.08 bitrate=N/A speed=19.6x    frame=24192 fps=468 q=-0.0 size=N/A time=00:16:49.00 bitrate=N/A speed=19.5x    frame=24377 fps=467 q=-0.0 size=N/A time=00:16:56.72 bitrate=N/A speed=19.5x    frame=24603 fps=467 q=-0.0 size=N/A time=00:17:06.15 bitrate=N/A speed=19.5x    frame=24863 fps=467 q=-0.0 size=N/A time=00:17:16.99 bitrate=N/A speed=19.5x    frame=25123 fps=468 q=-0.0 size=N/A time=00:17:27.83 bitrate=N/A speed=19.5x    frame=25381 fps=468 q=-0.0 size=N/A time=00:17:38.59 bitrate=N/A speed=19.5x    frame=25619 fps=468 q=-0.0 size=N/A time=00:17:48.52 bitrate=N/A speed=19.5x    frame=25867 fps=468 q=-0.0 size=N/A time=00:17:58.86 bitrate=N/A speed=19.5x    frame=26127 fps=468 q=-0.0 size=N/A time=00:18:09.71 bitrate=N/A speed=19.5x    frame=26414 fps=469 q=-0.0 size=N/A time=00:18:21.68 bitrate=N/A speed=19.6x    frame=26637 fps=469 q=-0.0 size=N/A time=00:18:30.98 bitrate=N/A speed=19.6x    frame=26887 fps=469 q=-0.0 size=N/A time=00:18:41.41 bitrate=N/A speed=19.6x    frame=27110 fps=469 q=-0.0 size=N/A time=00:18:50.71 bitrate=N/A speed=19.6x    frame=27367 fps=469 q=-0.0 size=N/A time=00:19:01.43 bitrate=N/A speed=19.6x    frame=27635 fps=469 q=-0.0 size=N/A time=00:19:12.60 bitrate=N/A speed=19.6x    frame=27916 fps=470 q=-0.0 size=N/A time=00:19:24.32 bitrate=N/A speed=19.6x    frame=28180 fps=470 q=-0.0 size=N/A time=00:19:35.34 bitrate=N/A speed=19.6x    frame=28414 fps=470 q=-0.0 size=N/A time=00:19:45.10 bitrate=N/A speed=19.6x    frame=28694 fps=471 q=-0.0 size=N/A time=00:19:56.77 bitrate=N/A speed=19.6x    frame=28958 fps=471 q=-0.0 size=N/A time=00:20:07.78 bitrate=N/A speed=19.7x    frame=29216 fps=472 q=-0.0 size=N/A time=00:20:18.55 bitrate=N/A speed=19.7x    frame=29493 fps=472 q=-0.0 size=N/A time=00:20:30.10 bitrate=N/A speed=19.7x    frame=29742 fps=472 q=-0.0 size=N/A time=00:20:40.48 bitrate=N/A speed=19.7x    frame=30005 fps=472 q=-0.0 size=N/A time=00:20:51.45 bitrate=N/A speed=19.7x    frame=30267 fps=473 q=-0.0 size=N/A time=00:21:02.38 bitrate=N/A speed=19.7x    frame=30535 fps=473 q=-0.0 size=N/A time=00:21:13.56 bitrate=N/A speed=19.7x    frame=30821 fps=474 q=-0.0 size=N/A time=00:21:25.49 bitrate=N/A speed=19.8x    frame=31080 fps=474 q=-0.0 size=N/A time=00:21:36.29 bitrate=N/A speed=19.8x    frame=31358 fps=474 q=-0.0 size=N/A time=00:21:47.88 bitrate=N/A speed=19.8x    frame=31592 fps=474 q=-0.0 size=N/A time=00:21:57.64 bitrate=N/A speed=19.8x    frame=31849 fps=475 q=-0.0 size=N/A time=00:22:08.36 bitrate=N/A speed=19.8x    frame=32119 fps=475 q=-0.0 size=N/A time=00:22:19.62 bitrate=N/A speed=19.8x    frame=32378 fps=475 q=-0.0 size=N/A time=00:22:30.43 bitrate=N/A speed=19.8x    frame=32635 fps=475 q=-0.0 size=N/A time=00:22:41.15 bitrate=N/A speed=19.8x    frame=32865 fps=475 q=-0.0 size=N/A time=00:22:50.74 bitrate=N/A speed=19.8x    frame=33113 fps=475 q=-0.0 size=N/A time=00:23:01.08 bitrate=N/A speed=19.8x    frame=33364 fps=475 q=-0.0 size=N/A time=00:23:11.55 bitrate=N/A speed=19.8x    frame=33502 fps=474 q=-0.0 size=N/A time=00:23:17.31 bitrate=N/A speed=19.8x    frame=33663 fps=472 q=-0.0 size=N/A time=00:23:24.02 bitrate=N/A speed=19.7x    frame=33828 fps=471 q=-0.0 size=N/A time=00:23:30.90 bitrate=N/A speed=19.7x    frame=34005 fps=470 q=-0.0 size=N/A time=00:23:38.29 bitrate=N/A speed=19.6x    frame=34171 fps=469 q=-0.0 size=N/A time=00:23:45.21 bitrate=N/A speed=19.6x    frame=34333 fps=468 q=-0.0 size=N/A time=00:23:51.97 bitrate=N/A speed=19.5x    frame=34505 fps=467 q=-0.0 size=N/A time=00:23:59.14 bitrate=N/A speed=19.5x    frame=34639 fps=466 q=-0.0 size=N/A time=00:24:04.73 bitrate=N/A speed=19.4x    frame=34821 fps=465 q=-0.0 size=N/A time=00:24:12.32 bitrate=N/A speed=19.4x    frame=35011 fps=464 q=-0.0 size=N/A time=00:24:20.25 bitrate=N/A speed=19.4x    frame=35256 fps=465 q=-0.0 size=N/A time=00:24:30.46 bitrate=N/A speed=19.4x    frame=35449 fps=464 q=-0.0 size=N/A time=00:24:38.51 bitrate=N/A speed=19.4x    frame=35646 fps=463 q=-0.0 size=N/A time=00:24:46.73 bitrate=N/A speed=19.3x    [Parsed_psnr_10 @ 0000027979d90640] PSNR y:48.780945 u:50.602882 v:51.195579 average:49.376719 min:37.690439 max:inf
[out#0/null @ 0000027979920f40] video:15367KiB audio:279692KiB subtitle:0KiB other streams:0KiB global headers:0KiB muxing overhead: unknown
frame=35764 fps=463 q=-0.0 Lsize=N/A time=00:24:51.65 bitrate=N/A speed=19.3x    
